# This file uses centimeters as units for non-parametric coordinates.

mtllib triangleVFXlight.mtl
g default
v -0.027907 -0.000000 4.770867
v -0.027907 0.000000 2.928238
v -7.521232 -0.000000 12.170989
v -9.293460 0.000000 12.158458
v 7.537392 -0.000000 12.198297
v 9.297962 -0.000000 12.178896
v 9.311972 -0.000000 13.450447
v -9.302440 -0.000000 13.428765
v -0.027907 10.300434 2.928238
v -0.027907 10.300434 4.770867
v -7.521232 10.300434 12.170989
v -9.293460 10.300434 12.158458
v 7.537392 10.300434 12.198297
v 9.297962 10.300434 12.178896
v 9.311972 10.300434 13.450447
v -9.302440 10.300434 13.428765
v 4.742960 -0.000000 -0.000000
v 2.900331 0.000000 -0.000000
v 12.143082 -0.000000 7.493325
v 12.130550 0.000000 9.265553
v 12.170389 -0.000000 -7.565299
v 12.150989 -0.000000 -9.325870
v 13.422540 -0.000000 -9.339879
v 13.400858 -0.000000 9.274532
v 2.900331 10.300434 -0.000000
v 4.742960 10.300434 -0.000000
v 12.143082 10.300434 7.493325
v 12.130550 10.300434 9.265553
v 12.170389 10.300434 -7.565299
v 12.150989 10.300434 -9.325870
v 13.422540 10.300434 -9.339879
v 13.400858 10.300434 9.274532
v -0.027907 -0.000000 -4.770867
v -0.027907 0.000000 -2.928238
v 7.465418 -0.000000 -12.170989
v 9.237645 0.000000 -12.158458
v -7.593206 -0.000000 -12.198297
v -9.353777 -0.000000 -12.178896
v -9.367786 -0.000000 -13.450447
v 9.246625 -0.000000 -13.428765
v -0.027907 10.300434 -2.928238
v -0.027907 10.300434 -4.770867
v 7.465418 10.300434 -12.170989
v 9.237645 10.300434 -12.158458
v -7.593206 10.300434 -12.198297
v -9.353777 10.300434 -12.178896
v -9.367786 10.300434 -13.450447
v 9.246625 10.300434 -13.428765
v -4.517356 -0.000000 0.000000
v -2.674726 0.000000 -0.000000
v -11.917478 -0.000000 -7.493325
v -11.904946 0.000000 -9.265553
v -11.944785 -0.000000 7.565299
v -11.925385 -0.000000 9.325870
v -13.196936 -0.000000 9.339879
v -13.175254 -0.000000 -9.274532
v -2.674726 10.300434 -0.000000
v -4.517356 10.300434 0.000000
v -11.917478 10.300434 -7.493325
v -11.904946 10.300434 -9.265553
v -11.944785 10.300434 7.565299
v -11.925385 10.300434 9.325870
v -13.196936 10.300434 9.339879
v -13.175254 10.300434 -9.274532
vt -0.000000 0.000000
vt 0.000000 1.000000
vt 1.000000 0.000000
vt 0.000000 0.000000
vt 0.000000 1.000000
vt 1.000000 1.000000
vt 0.000000 0.000000
vt 0.000000 1.000000
vt 1.000000 0.000000
vt 1.000000 1.000000
vt 1.000000 1.000000
vt 1.000000 0.000000
vt 1.000000 1.000000
vt 1.000000 0.000000
vt 0.000000 0.000000
vt 0.000000 1.000000
vt -0.000000 0.000000
vt 0.000000 1.000000
vt 1.000000 0.000000
vt 0.000000 0.000000
vt 0.000000 1.000000
vt 1.000000 1.000000
vt 0.000000 0.000000
vt 0.000000 1.000000
vt 1.000000 0.000000
vt 1.000000 1.000000
vt 1.000000 1.000000
vt 1.000000 0.000000
vt 1.000000 1.000000
vt 1.000000 0.000000
vt 0.000000 0.000000
vt 0.000000 1.000000
vt -0.000000 0.000000
vt 0.000000 1.000000
vt 1.000000 0.000000
vt 0.000000 0.000000
vt 0.000000 1.000000
vt 1.000000 1.000000
vt 0.000000 0.000000
vt 0.000000 1.000000
vt 1.000000 0.000000
vt 1.000000 1.000000
vt 1.000000 1.000000
vt 1.000000 0.000000
vt 1.000000 1.000000
vt 1.000000 0.000000
vt 0.000000 0.000000
vt 0.000000 1.000000
vt -0.000000 0.000000
vt 0.000000 1.000000
vt 1.000000 0.000000
vt 0.000000 0.000000
vt 0.000000 1.000000
vt 1.000000 1.000000
vt 0.000000 0.000000
vt 0.000000 1.000000
vt 1.000000 0.000000
vt 1.000000 1.000000
vt 1.000000 1.000000
vt 1.000000 0.000000
vt 1.000000 1.000000
vt 1.000000 0.000000
vt 0.000000 0.000000
vt 0.000000 1.000000
vt 1.000000 -0.000000
vt 1.000000 1.000000
vt 0.000000 0.000000
vt 1.000000 0.000000
vt 1.000000 1.000000
vt 0.000000 1.000000
vt 1.000000 -0.000000
vt 1.000000 1.000000
vt 0.000000 0.000000
vt 0.000000 1.000000
vt 0.000000 1.000000
vt -0.000000 0.000000
vt 0.000000 1.000000
vt 0.000000 0.000000
vt 1.000000 0.000000
vt 1.000000 1.000000
vt 1.000000 -0.000000
vt 1.000000 1.000000
vt 0.000000 0.000000
vt 1.000000 0.000000
vt 1.000000 1.000000
vt 0.000000 1.000000
vt 1.000000 -0.000000
vt 1.000000 1.000000
vt 0.000000 0.000000
vt 0.000000 1.000000
vt 0.000000 1.000000
vt -0.000000 0.000000
vt 0.000000 1.000000
vt 0.000000 0.000000
vt 1.000000 0.000000
vt 1.000000 1.000000
vt 1.000000 -0.000000
vt 1.000000 1.000000
vt 0.000000 0.000000
vt 1.000000 0.000000
vt 1.000000 1.000000
vt 0.000000 1.000000
vt 1.000000 -0.000000
vt 1.000000 1.000000
vt 0.000000 0.000000
vt 0.000000 1.000000
vt 0.000000 1.000000
vt -0.000000 0.000000
vt 0.000000 1.000000
vt 0.000000 0.000000
vt 1.000000 0.000000
vt 1.000000 1.000000
vt 1.000000 -0.000000
vt 1.000000 1.000000
vt 0.000000 0.000000
vt 1.000000 0.000000
vt 1.000000 1.000000
vt 0.000000 1.000000
vt 1.000000 -0.000000
vt 1.000000 1.000000
vt 0.000000 0.000000
vt 0.000000 1.000000
vt 0.000000 1.000000
vt -0.000000 0.000000
vt 0.000000 1.000000
vt 0.000000 0.000000
vt 1.000000 0.000000
vt 1.000000 1.000000
vn -0.705755 0.000000 -0.708456
vn -0.705755 0.000000 -0.708456
vn -0.705755 0.000000 -0.708456
vn -0.705755 0.000000 -0.708456
vn -0.702668 0.000000 -0.711518
vn -0.702668 0.000000 -0.711518
vn -0.702668 0.000000 -0.711518
vn -0.702668 0.000000 -0.711518
vn 0.700575 0.000000 -0.713579
vn 0.700575 0.000000 -0.713579
vn 0.700575 0.000000 -0.713579
vn 0.700575 0.000000 -0.713579
vn 0.704238 0.000000 -0.709964
vn 0.704238 0.000000 -0.709964
vn 0.704238 0.000000 -0.709964
vn 0.704238 0.000000 -0.709964
vn 0.999939 0.000000 -0.011017
vn 0.999939 0.000000 -0.011017
vn 0.999939 0.000000 -0.011017
vn 0.999939 0.000000 -0.011017
vn -0.999975 0.000000 -0.007069
vn -0.999975 0.000000 -0.007069
vn -0.999975 0.000000 -0.007069
vn -0.999975 0.000000 -0.007069
vn -0.001165 0.000000 0.999999
vn -0.001165 0.000000 0.999999
vn -0.001165 0.000000 0.999999
vn -0.001165 0.000000 0.999999
vn -0.001813 0.000000 0.999998
vn -0.001813 0.000000 0.999998
vn -0.001813 0.000000 0.999998
vn -0.001813 0.000000 0.999998
vn -0.708456 0.000000 0.705755
vn -0.708456 0.000000 0.705755
vn -0.708456 0.000000 0.705755
vn -0.708456 0.000000 0.705755
vn -0.711518 0.000000 0.702668
vn -0.711518 0.000000 0.702668
vn -0.711518 0.000000 0.702668
vn -0.711518 0.000000 0.702668
vn -0.713579 0.000000 -0.700575
vn -0.713579 0.000000 -0.700575
vn -0.713579 0.000000 -0.700575
vn -0.713579 0.000000 -0.700575
vn -0.709964 0.000000 -0.704238
vn -0.709964 0.000000 -0.704238
vn -0.709964 0.000000 -0.704238
vn -0.709964 0.000000 -0.704238
vn -0.011017 0.000000 -0.999939
vn -0.011017 0.000000 -0.999939
vn -0.011017 0.000000 -0.999939
vn -0.011017 0.000000 -0.999939
vn -0.007068 0.000000 0.999975
vn -0.007068 0.000000 0.999975
vn -0.007068 0.000000 0.999975
vn -0.007068 0.000000 0.999975
vn 0.999999 0.000000 0.001165
vn 0.999999 0.000000 0.001165
vn 0.999999 0.000000 0.001165
vn 0.999999 0.000000 0.001165
vn 0.999998 0.000000 0.001813
vn 0.999998 0.000000 0.001813
vn 0.999998 0.000000 0.001813
vn 0.999998 0.000000 0.001813
vn 0.705755 0.000000 0.708456
vn 0.705755 0.000000 0.708456
vn 0.705755 0.000000 0.708456
vn 0.705755 0.000000 0.708456
vn 0.702668 0.000000 0.711518
vn 0.702668 0.000000 0.711518
vn 0.702668 0.000000 0.711518
vn 0.702668 0.000000 0.711518
vn -0.700575 0.000000 0.713579
vn -0.700575 0.000000 0.713579
vn -0.700575 0.000000 0.713579
vn -0.700575 0.000000 0.713579
vn -0.704238 0.000000 0.709964
vn -0.704238 0.000000 0.709964
vn -0.704238 0.000000 0.709964
vn -0.704238 0.000000 0.709964
vn -0.999939 0.000000 0.011017
vn -0.999939 0.000000 0.011017
vn -0.999939 0.000000 0.011017
vn -0.999939 0.000000 0.011017
vn 0.999975 0.000000 0.007069
vn 0.999975 0.000000 0.007069
vn 0.999975 0.000000 0.007069
vn 0.999975 0.000000 0.007069
vn 0.001165 0.000000 -0.999999
vn 0.001165 0.000000 -0.999999
vn 0.001165 0.000000 -0.999999
vn 0.001165 0.000000 -0.999999
vn 0.001813 0.000000 -0.999998
vn 0.001813 0.000000 -0.999998
vn 0.001813 0.000000 -0.999998
vn 0.001813 0.000000 -0.999998
vn 0.708456 0.000000 -0.705755
vn 0.708456 0.000000 -0.705755
vn 0.708456 0.000000 -0.705755
vn 0.708456 0.000000 -0.705755
vn 0.711518 0.000000 -0.702668
vn 0.711518 0.000000 -0.702668
vn 0.711518 0.000000 -0.702668
vn 0.711518 0.000000 -0.702668
vn 0.713579 0.000000 0.700575
vn 0.713579 0.000000 0.700575
vn 0.713579 0.000000 0.700575
vn 0.713579 0.000000 0.700575
vn 0.709964 0.000000 0.704238
vn 0.709964 0.000000 0.704238
vn 0.709964 0.000000 0.704238
vn 0.709964 0.000000 0.704238
vn 0.011017 0.000000 0.999939
vn 0.011017 0.000000 0.999939
vn 0.011017 0.000000 0.999939
vn 0.011017 0.000000 0.999939
vn 0.007068 0.000000 -0.999975
vn 0.007068 0.000000 -0.999975
vn 0.007068 0.000000 -0.999975
vn 0.007068 0.000000 -0.999975
vn -0.999999 0.000000 -0.001165
vn -0.999999 0.000000 -0.001165
vn -0.999999 0.000000 -0.001165
vn -0.999999 0.000000 -0.001165
vn -0.999998 0.000000 -0.001813
vn -0.999998 0.000000 -0.001813
vn -0.999998 0.000000 -0.001813
vn -0.999998 0.000000 -0.001813
s off
g glow_GEO
usemtl initialShadingGroup
f 12/72/1 9/2/2 2/1/3 4/71/4
f 1/67/5 3/68/6 11/69/7 10/70/8
f 5/73/9 1/3/10 10/6/11 13/74/12
f 9/66/13 14/75/14 6/76/15 2/65/16
f 6/12/17 14/11/18 15/77/19 7/78/20
f 8/79/21 16/80/22 12/8/23 4/7/24
f 15/13/25 16/16/26 8/15/27 7/14/28
f 3/4/29 5/9/30 13/10/31 11/5/32
f 28/88/33 25/18/34 18/17/35 20/87/36
f 17/83/37 19/84/38 27/85/39 26/86/40
f 21/89/41 17/19/42 26/22/43 29/90/44
f 25/82/45 30/91/46 22/92/47 18/81/48
f 22/28/49 30/27/50 31/93/51 23/94/52
f 24/95/53 32/96/54 28/24/55 20/23/56
f 31/29/57 32/32/58 24/31/59 23/30/60
f 19/20/61 21/25/62 29/26/63 27/21/64
f 44/104/65 41/34/66 34/33/67 36/103/68
f 33/99/69 35/100/70 43/101/71 42/102/72
f 37/105/73 33/35/74 42/38/75 45/106/76
f 41/98/77 46/107/78 38/108/79 34/97/80
f 38/44/81 46/43/82 47/109/83 39/110/84
f 40/111/85 48/112/86 44/40/87 36/39/88
f 47/45/89 48/48/90 40/47/91 39/46/92
f 35/36/93 37/41/94 45/42/95 43/37/96
f 60/120/97 57/50/98 50/49/99 52/119/100
f 49/115/101 51/116/102 59/117/103 58/118/104
f 53/121/105 49/51/106 58/54/107 61/122/108
f 57/114/109 62/123/110 54/124/111 50/113/112
f 54/60/113 62/59/114 63/125/115 55/126/116
f 56/127/117 64/128/118 60/56/119 52/55/120
f 63/61/121 64/64/122 56/63/123 55/62/124
f 51/52/125 53/57/126 61/58/127 59/53/128
